<svg width="177" height="49" fill="none" xmlns="http://www.w3.org/2000/svg"><path d="M24.728 42.63s0-.163 0 0c0-.163 0-.163 0 0 2.115-2.45 3.58-4.737 4.393-7.187 1.139-3.266 1.464-6.533 1.301-9.8-.162-2.45-.488-4.736-.976-6.86-.162-.98-.488-1.796-.65-2.613-.163-.327-.163-.653-.326-.98-.325-1.143-.65-1.797-.65-1.797s.325.654.65 1.797a45.123 45.123 0 00-1.952-5.227c-1.139-2.45-1.952-3.92-1.952-3.92s-.976 1.307-2.115 3.43c-.488.98-.976 1.96-1.465 3.104l-.976 2.45c.163.163.163.326.326.653-.163-.327-.326-.49-.326-.653-.325.98-.65 1.96-.813 2.94v.163c-.325 1.96-.65 4.083-.65 6.697v.816c.325 4.574 1.789 9.964 5.368 15.844.163.326.488.816.65 1.143v-.163c-.325-.654-.813-2.287-1.138-4.41-.326-2.614-.326-6.207 1.139-9.8v-.164c0 .164.162.164.162.327 1.302 2.94 1.464 5.88 1.302 8.167-.163 1.306-.326 2.613-.65 3.593-.164.49-.326.98-.326 1.307-.163.653-.326.98-.326 1.143 0 0-.162 0 0 0z" fill="#fff"/><path d="M36.28 3.103C32.7 1.143 28.795 0 24.402 0 10.9 0 0 10.943 0 24.5S10.9 49 24.403 49c13.503 0 24.403-10.943 24.403-24.5 0-4.41-1.139-8.493-3.09-11.923l-2.604 1.47c1.79 3.266 2.766 6.86 2.766 10.943 0 12.25-9.924 22.213-22.126 22.213-12.201 0-22.125-9.963-22.125-22.213 0-12.25 9.924-22.213 22.125-22.213 4.068 0 7.81 1.143 11.063 2.94L33.188 8.82l8.623-.163-4.556-7.35-.976 1.796zm24.245 11.131h3.72v8.004h7.175v-8.004h3.72v20.01h-3.72v-8.27h-7.175v8.27h-3.72v-20.01zm22.056 0v14.14l8.77-14.14h3.72v20.01h-3.72v-14.14l-8.77 14.14h-3.72v-20.01h3.72zm16.21 0h14.616v20.01h-3.72V17.703h-7.441v16.54h-3.455V14.235zm21.791 0v14.14l8.769-14.14h3.721v20.01h-3.721v-14.14l-8.769 14.14h-3.72v-20.01h3.72zm16.21 0h9.832v3.469h-6.112v16.54h-3.72V14.235zm19.399 11.206l-2.126-5.87-2.126 5.87h4.252zm-3.72-11.206h2.923l8.238 20.01h-3.986l-2.126-5.07h-7.175l-2.126 5.07h-3.986l8.238-20.01zm17.804-.267c3.455 0 6.112 2.135 6.112 5.603 0 2.134-1.329 3.468-2.923 4.269 1.86.533 3.455 2.134 3.455 4.802 0 3.735-2.923 5.87-6.91 5.87-3.72 0-6.909-2.402-6.643-6.404h3.72c0 1.068.532 2.935 2.923 2.935 2.126 0 2.924-1.334 2.924-2.668s-.798-2.668-2.658-2.668h-1.86v-3.468h1.594c1.595 0 2.392-.8 2.392-2.134 0-1.601-.797-2.402-2.392-2.402-1.328 0-2.391.8-2.391 1.868h-3.455c0-3.201 2.126-5.603 6.112-5.603z" fill="#fff"/></svg>